<svg opacity="0.4" width="400" height="485" viewBox="30 50 300 405" fill="none" xmlns="http://www.w3.org/2000/svg">
<path fill-rule="evenodd" clip-rule="evenodd" d="M79.3383 -1.97544e-07C84.3117 -2.09968e-07 89.0799 1.86062 92.5866 5.16971L139.734 49.6603L186.882 5.1697C190.388 1.86062 195.157 -4.86867e-07 200.13 -4.99291e-07C205.103 -5.11715e-07 209.872 1.86062 213.378 5.16971L260.526 49.6603L307.673 5.1697C311.18 1.86062 315.948 -7.88614e-07 320.922 -8.01038e-07C325.895 -8.13462e-07 330.663 1.86062 334.17 5.16971L394.566 62.1621C401.841 69.0273 401.807 80.1263 394.49 86.9524C387.174 93.7785 375.344 93.7468 368.069 86.8816L320.922 42.391L273.774 86.8816C270.267 90.1907 265.499 92.0513 260.526 92.0513C255.552 92.0513 250.784 90.1907 247.277 86.8816L200.13 42.391L152.982 86.8816C149.476 90.1907 144.708 92.0513 139.734 92.0513C134.761 92.0513 129.993 90.1907 126.486 86.8816L79.3383 42.391L32.1908 86.8816C24.9156 93.7468 13.0864 93.7785 5.76957 86.9524C-1.54727 80.1263 -1.58105 69.0273 5.69413 62.1621L66.09 5.16971C69.5967 1.86062 74.3648 -1.8512e-07 79.3383 -1.97544e-07Z" fill="white"/>
<path fill-rule="evenodd" clip-rule="evenodd" d="M79.3383 98.2363C84.3117 98.2363 89.0799 100.097 92.5866 103.406L139.734 147.897L186.882 103.406C190.388 100.097 195.157 98.2363 200.13 98.2363C205.103 98.2363 209.872 100.097 213.378 103.406L260.526 147.897L307.673 103.406C311.18 100.097 315.948 98.2363 320.922 98.2363C325.895 98.2363 330.663 100.097 334.17 103.406L394.566 160.398C401.841 167.264 401.807 178.363 394.49 185.189C387.174 192.015 375.344 191.983 368.069 185.118L320.922 140.627L273.774 185.118C270.267 188.427 265.499 190.288 260.526 190.288C255.552 190.288 250.784 188.427 247.277 185.118L200.13 140.627L152.982 185.118C149.476 188.427 144.708 190.288 139.734 190.288C134.761 190.288 129.993 188.427 126.486 185.118L79.3383 140.627L32.1908 185.118C24.9156 191.983 13.0864 192.015 5.76957 185.189C-1.54727 178.363 -1.58105 167.264 5.69413 160.398L66.09 103.406C69.5967 100.097 74.3648 98.2363 79.3383 98.2363Z" fill="white"/>
<path fill-rule="evenodd" clip-rule="evenodd" d="M79.3383 196.473C84.3117 196.473 89.0799 198.333 92.5866 201.642L139.734 246.133L186.882 201.642C190.388 198.333 195.157 196.473 200.13 196.473C205.103 196.473 209.872 198.333 213.378 201.642L260.526 246.133L307.673 201.642C311.18 198.333 315.948 196.473 320.922 196.473C325.895 196.473 330.663 198.333 334.17 201.642L394.566 258.635C401.841 265.5 401.807 276.599 394.49 283.425C387.174 290.251 375.344 290.219 368.069 283.354L320.922 238.864L273.774 283.354C270.267 286.663 265.499 288.524 260.526 288.524C255.552 288.524 250.784 286.663 247.277 283.354L200.13 238.864L152.982 283.354C149.476 286.663 144.708 288.524 139.734 288.524C134.761 288.524 129.993 286.663 126.486 283.354L79.3383 238.864L32.1908 283.354C24.9156 290.219 13.0864 290.251 5.76957 283.425C-1.54727 276.599 -1.58105 265.5 5.69413 258.635L66.09 201.642C69.5967 198.333 74.3648 196.473 79.3383 196.473Z" fill="white"/>
<path fill-rule="evenodd" clip-rule="evenodd" d="M79.3383 294.71C84.3117 294.71 89.0799 296.571 92.5866 299.88L139.734 344.37L186.882 299.88C190.388 296.571 195.157 294.71 200.13 294.71C205.103 294.71 209.872 296.571 213.378 299.88L260.526 344.37L307.673 299.88C311.18 296.571 315.948 294.71 320.922 294.71C325.895 294.71 330.663 296.571 334.17 299.88L394.566 356.872C401.841 363.737 401.807 374.836 394.49 381.662C387.174 388.488 375.344 388.457 368.069 381.592L320.922 337.101L273.774 381.592C270.267 384.901 265.499 386.761 260.526 386.761C255.552 386.761 250.784 384.901 247.277 381.592L200.13 337.101L152.982 381.592C149.476 384.901 144.708 386.761 139.734 386.761C134.761 386.761 129.993 384.901 126.486 381.592L79.3383 337.101L32.1908 381.592C24.9156 388.457 13.0864 388.488 5.76957 381.662C-1.54727 374.836 -1.58105 363.737 5.69413 356.872L66.09 299.88C69.5967 296.571 74.3648 294.71 79.3383 294.71Z" fill="white"/>
<path fill-rule="evenodd" clip-rule="evenodd" d="M79.3383 392.946C84.3117 392.946 89.0799 394.807 92.5866 398.116L139.734 442.607L186.882 398.116C190.388 394.807 195.157 392.946 200.13 392.946C205.103 392.946 209.872 394.807 213.378 398.116L260.526 442.607L307.673 398.116C311.18 394.807 315.948 392.946 320.922 392.946C325.895 392.946 330.663 394.807 334.17 398.116L394.566 455.108C401.841 461.974 401.807 473.073 394.49 479.899C387.174 486.725 375.344 486.693 368.069 479.828L320.922 435.337L273.774 479.828C270.267 483.137 265.499 484.998 260.526 484.998C255.552 484.998 250.784 483.137 247.277 479.828L200.13 435.337L152.982 479.828C149.476 483.137 144.708 484.998 139.734 484.998C134.761 484.998 129.993 483.137 126.486 479.828L79.3383 435.337L32.1908 479.828C24.9156 486.693 13.0864 486.725 5.76957 479.899C-1.54727 473.073 -1.58105 461.974 5.69413 455.108L66.09 398.116C69.5967 394.807 74.3648 392.946 79.3383 392.946Z" fill="white"/>
</svg>
