<svg opacity="0.3" width="828" height="806" viewBox="190 200 658 596" fill="none" xmlns="http://www.w3.org/2000/svg">
<path fill-rule="evenodd" clip-rule="evenodd" d="M115.583 287.326C123.852 281.841 135.395 283.816 141.366 291.738L164.519 322.458C170.489 330.38 168.626 341.249 160.357 346.734C152.088 352.219 140.545 350.244 134.575 342.322L111.422 311.601C105.451 303.68 107.315 292.811 115.583 287.326ZM185.042 379.488C193.311 374.003 204.854 375.978 210.825 383.9L257.131 445.342C263.101 453.263 261.238 464.132 252.969 469.617C244.7 475.102 233.157 473.127 227.187 465.205L180.881 403.764C174.91 395.842 176.774 384.973 185.042 379.488ZM277.654 502.371C285.923 496.886 297.466 498.861 303.437 506.783L349.743 568.225C355.713 576.146 353.85 587.015 345.581 592.5C337.312 597.985 325.769 596.01 319.799 588.088L273.493 526.647C267.522 518.725 269.386 507.857 277.654 502.371ZM370.267 625.254C378.535 619.769 390.078 621.744 396.049 629.666L419.202 660.387C425.172 668.309 423.309 679.177 415.04 684.663C406.771 690.148 395.228 688.173 389.258 680.251L366.105 649.53C360.134 641.608 361.998 630.74 370.267 625.254Z" fill="white"/>
<path fill-rule="evenodd" clip-rule="evenodd" d="M23.2894 294.69C31.5582 289.204 43.1012 291.18 49.0716 299.101L72.2246 329.822C78.1949 337.744 76.3317 348.613 68.0629 354.098C59.7941 359.583 48.251 357.608 42.2807 349.686L19.1276 318.965C13.1573 311.043 15.0206 300.175 23.2894 294.69ZM92.7484 386.852C101.017 381.367 112.56 383.342 118.531 391.264L164.837 452.705C170.807 460.627 168.944 471.496 160.675 476.981C152.406 482.466 140.863 480.491 134.893 472.569L88.5867 411.128C82.6164 403.206 84.4796 392.337 92.7484 386.852ZM185.361 509.735C193.629 504.25 205.172 506.225 211.143 514.147L257.449 575.588C263.419 583.51 261.556 594.379 253.287 599.864C245.018 605.349 233.475 603.374 227.505 595.452L181.199 534.011C175.228 526.089 177.092 515.22 185.361 509.735ZM277.973 632.618C286.241 627.133 297.784 629.108 303.755 637.03L326.908 667.751C332.878 675.673 331.015 686.541 322.746 692.026C314.477 697.512 302.934 695.536 296.964 687.615L273.811 656.894C267.841 648.972 269.704 638.103 277.973 632.618Z" fill="white"/>
<path fill-rule="evenodd" clip-rule="evenodd" d="M254.987 194.769C263.255 189.284 274.799 191.259 280.769 199.181L303.922 229.902C309.892 237.824 308.029 248.692 299.76 254.177C291.491 259.663 279.948 257.687 273.978 249.766L250.825 219.045C244.855 211.123 246.718 200.255 254.987 194.769ZM324.446 286.932C332.714 281.446 344.258 283.422 350.228 291.343L396.534 352.785C402.504 360.707 400.641 371.575 392.372 377.06C384.103 382.546 372.56 380.57 366.59 372.649L320.284 311.207C314.314 303.285 316.177 292.417 324.446 286.932ZM417.058 409.815C425.327 404.329 436.87 406.305 442.84 414.226L489.146 475.668C495.116 483.59 493.253 494.458 484.984 499.944C476.716 505.429 465.172 503.454 459.202 495.532L412.896 434.09C406.926 426.168 408.789 415.3 417.058 409.815ZM509.67 532.698C517.939 527.213 529.482 529.188 535.452 537.11L558.605 567.83C564.575 575.752 562.712 586.621 554.443 592.106C546.175 597.591 534.632 595.616 528.661 587.694L505.508 556.973C499.538 549.052 501.401 538.183 509.67 532.698Z" fill="white"/>
<path fill-rule="evenodd" clip-rule="evenodd" d="M394.39 102.206C402.659 96.7206 414.202 98.6958 420.172 106.618L443.325 137.338C449.296 145.26 447.432 156.129 439.163 161.614C430.895 167.099 419.352 165.124 413.381 157.202L390.228 126.481C384.258 118.56 386.121 107.691 394.39 102.206ZM463.849 194.368C472.118 188.883 483.661 190.858 489.631 198.78L535.937 260.221C541.908 268.143 540.044 279.012 531.776 284.497C523.507 289.982 511.964 288.007 505.993 280.085L459.687 218.644C453.717 210.722 455.58 199.853 463.849 194.368ZM556.461 317.251C564.73 311.766 576.273 313.741 582.243 321.663L628.549 383.105C634.52 391.026 632.656 401.895 624.388 407.38C616.119 412.865 604.576 410.89 598.605 402.968L552.299 341.527C546.329 333.605 548.192 322.736 556.461 317.251ZM649.073 440.134C657.342 434.649 668.885 436.624 674.855 444.546L698.008 475.267C703.979 483.189 702.116 494.057 693.847 499.542C685.578 505.028 674.035 503.052 668.065 495.131L644.911 464.41C638.941 456.488 640.804 445.62 649.073 440.134Z" fill="white"/>
<path fill-rule="evenodd" clip-rule="evenodd" d="M476.587 75.9353C484.856 70.4501 496.399 72.4253 502.369 80.3471L525.522 111.068C531.493 118.99 529.63 129.858 521.361 135.343C513.092 140.829 501.549 138.853 495.579 130.932L472.425 100.211C466.455 92.2891 468.318 81.4205 476.587 75.9353ZM546.046 168.098C554.315 162.612 565.858 164.588 571.829 172.509L618.135 233.951C624.105 241.873 622.242 252.741 613.973 258.226C605.704 263.712 594.161 261.737 588.191 253.815L541.885 192.373C535.914 184.451 537.777 173.583 546.046 168.098ZM638.658 290.981C646.927 285.495 658.47 287.471 664.441 295.392L710.747 356.834C716.717 364.756 714.854 375.624 706.585 381.11C698.316 386.595 686.773 384.62 680.803 376.698L634.497 315.256C628.526 307.334 630.39 296.466 638.658 290.981ZM731.27 413.864C739.539 408.379 751.082 410.354 757.053 418.276L780.206 448.996C786.176 456.918 784.313 467.787 776.044 473.272C767.775 478.757 756.232 476.782 750.262 468.86L727.109 438.139C721.138 430.218 723.002 419.349 731.27 413.864Z" fill="white"/>
<path fill-rule="evenodd" clip-rule="evenodd" d="M149.897 194.054C158.162 188.57 169.7 190.544 175.668 198.465L198.405 228.638C204.373 236.558 202.51 247.425 194.245 252.909C185.98 258.393 174.441 256.418 168.473 248.498L145.737 218.324C139.769 210.404 141.631 199.538 149.897 194.054ZM218.107 284.576C226.372 279.091 237.91 281.066 243.878 288.986L289.352 349.334C295.32 357.254 293.457 368.12 285.192 373.604C276.926 379.088 265.388 377.114 259.42 369.194L213.947 308.846C207.979 300.926 209.841 290.06 218.107 284.576ZM309.053 405.271C317.319 399.787 328.857 401.762 334.825 409.682L380.298 470.03C386.266 477.95 384.404 488.816 376.138 494.3C367.873 499.784 356.335 497.809 350.367 489.889L304.893 429.541C298.925 421.621 300.788 410.755 309.053 405.271ZM400 525.967C408.266 520.483 419.804 522.458 425.772 530.378L471.245 590.726C477.213 598.646 475.351 609.512 467.085 614.996C458.82 620.48 447.281 618.505 441.313 610.585L395.84 550.237C389.872 542.317 391.735 531.451 400 525.967ZM490.947 646.663C499.212 641.179 510.751 643.153 516.719 651.074L539.455 681.247C545.423 689.167 543.561 700.034 535.295 705.518C527.03 711.002 515.491 709.027 509.523 701.107L486.787 670.933C480.819 663.013 482.681 652.147 490.947 646.663Z" fill="white"/>
<path fill-rule="evenodd" clip-rule="evenodd" d="M289.299 101.492C297.564 96.0082 309.103 97.9829 315.071 105.903L337.807 136.077C343.775 143.997 341.913 154.863 333.647 160.347C325.382 165.831 313.843 163.856 307.876 155.936L285.139 125.762C279.171 117.842 281.033 106.976 289.299 101.492ZM357.509 192.014C365.774 186.53 377.313 188.505 383.281 196.425L428.754 256.773C434.722 264.693 432.859 275.559 424.594 281.043C416.329 286.527 404.79 284.552 398.822 276.632L353.349 216.284C347.381 208.364 349.244 197.498 357.509 192.014ZM448.456 312.71C456.721 307.226 468.26 309.2 474.227 317.121L519.701 377.468C525.669 385.388 523.806 396.255 515.541 401.739C507.275 407.223 495.737 405.248 489.769 397.328L444.296 336.98C438.328 329.06 440.19 318.194 448.456 312.71ZM539.402 433.405C547.668 427.921 559.206 429.896 565.174 437.816L610.648 498.164C616.615 506.084 614.753 516.95 606.488 522.434C598.222 527.918 586.684 525.944 580.716 518.024L535.242 457.676C529.275 449.756 531.137 438.89 539.402 433.405ZM630.349 554.101C638.615 548.617 650.153 550.592 656.121 558.512L678.858 588.686C684.826 596.606 682.963 607.472 674.698 612.956C666.432 618.44 654.894 616.465 648.926 608.545L626.189 578.371C620.221 570.451 622.084 559.585 630.349 554.101Z" fill="white"/>
</svg>
