<svg opacity="0.25" width="478" height="436" viewBox="148 -0 300 440" fill="none" xmlns="http://www.w3.org/2000/svg">
<path fill-rule="evenodd" clip-rule="evenodd" d="M113.566 86.1239C113.566 91.5404 111.271 96.7332 107.188 100.552L52.2992 151.899L107.188 203.246C111.271 207.065 113.566 212.258 113.566 217.674C113.566 223.091 111.271 228.284 107.188 232.103L52.2992 283.45L107.188 334.797C111.271 338.616 113.566 343.809 113.566 349.225C113.566 354.641 111.271 359.834 107.188 363.653L36.8754 429.429C28.4056 437.352 14.7125 437.315 6.29099 429.346C-2.13057 421.378 -2.09146 408.495 6.37831 400.572L61.2676 349.225L6.37832 297.878C2.29581 294.059 0.000313588 288.866 0.000313859 283.45C0.000314131 278.033 2.29581 272.84 6.37832 269.021L61.2676 217.674L6.37833 166.328C2.29581 162.509 0.00032018 157.316 0.000320452 151.899C0.000320723 146.483 2.29582 141.29 6.37833 137.471L61.2676 86.124L6.37833 34.777C-2.09144 26.8538 -2.13055 13.9711 6.29101 6.00251C14.7125 -1.96604 28.4057 -2.00282 36.8754 5.92035L107.188 71.6956C111.271 75.5146 113.566 80.7075 113.566 86.1239Z" fill="white"/>
<path fill-rule="evenodd" clip-rule="evenodd" d="M234.766 86.1239C234.766 91.5404 232.47 96.7332 228.388 100.552L173.498 151.899L228.388 203.246C232.47 207.065 234.766 212.258 234.766 217.674C234.766 223.091 232.47 228.284 228.388 232.103L173.498 283.45L228.388 334.797C232.47 338.616 234.766 343.809 234.766 349.225C234.766 354.641 232.47 359.834 228.388 363.653L158.075 429.429C149.605 437.352 135.912 437.315 127.49 429.346C119.069 421.378 119.108 408.495 127.578 400.572L182.467 349.225L127.578 297.878C123.495 294.059 121.2 288.866 121.2 283.45C121.2 278.033 123.495 272.84 127.578 269.021L182.467 217.674L127.578 166.328C123.495 162.509 121.2 157.316 121.2 151.899C121.2 146.483 123.495 141.29 127.578 137.471L182.467 86.124L127.578 34.777C119.108 26.8538 119.069 13.9711 127.49 6.00251C135.912 -1.96604 149.605 -2.00282 158.075 5.92035L228.388 71.6956C232.47 75.5146 234.766 80.7075 234.766 86.1239Z" fill="white"/>
<path fill-rule="evenodd" clip-rule="evenodd" d="M355.959 86.122C355.959 91.5384 353.663 96.7313 349.581 100.55L294.692 151.897L349.581 203.244C353.663 207.063 355.959 212.256 355.959 217.673C355.959 223.089 353.663 228.282 349.581 232.101L294.692 283.448L349.581 334.795C353.663 338.614 355.959 343.807 355.959 349.223C355.959 354.639 353.663 359.832 349.581 363.651L279.268 429.427C270.798 437.35 257.105 437.313 248.684 429.344C240.262 421.376 240.301 408.493 248.771 400.57L303.66 349.223L248.771 297.876C244.688 294.057 242.393 288.864 242.393 283.448C242.393 278.031 244.688 272.838 248.771 269.019L303.66 217.672L248.771 166.326C244.688 162.507 242.393 157.314 242.393 151.897C242.393 146.481 244.688 141.288 248.771 137.469L303.66 86.122L248.771 34.7751C240.301 26.8519 240.262 13.9691 248.684 6.00056C257.105 -1.96799 270.798 -2.00478 279.268 5.9184L349.581 71.6937C353.663 75.5127 355.959 80.7056 355.959 86.122Z" fill="white"/>
<path fill-rule="evenodd" clip-rule="evenodd" d="M477.158 86.1239C477.158 91.5404 474.863 96.7332 470.78 100.552L415.891 151.899L470.78 203.246C474.863 207.065 477.158 212.258 477.158 217.674C477.158 223.091 474.863 228.284 470.78 232.103L415.891 283.45L470.78 334.797C474.863 338.616 477.158 343.809 477.158 349.225C477.158 354.641 474.863 359.834 470.78 363.653L400.467 429.429C391.997 437.352 378.304 437.315 369.883 429.346C361.461 421.378 361.5 408.495 369.97 400.572L424.859 349.225L369.97 297.878C365.888 294.059 363.592 288.866 363.592 283.45C363.592 278.033 365.888 272.84 369.97 269.021L424.859 217.674L369.97 166.328C365.888 162.508 363.592 157.316 363.592 151.899C363.592 146.483 365.888 141.29 369.97 137.471L424.859 86.1239L369.97 34.777C361.5 26.8538 361.461 13.9711 369.883 6.00251C378.304 -1.96604 391.997 -2.00282 400.467 5.92035L470.78 71.6956C474.863 75.5146 477.158 80.7075 477.158 86.1239Z" fill="white"/>
</svg>
