<svg opacity="0.2" width="623" height="437" viewBox="20 -5 580 407" fill="none" xmlns="http://www.w3.org/2000/svg">
    <path  fill-rule="evenodd" clip-rule="evenodd" d="M558.327 252.606C551.11 259.087 539.743 259.086 532.527 252.603L487.383 212.046C476.526 202.293 459.622 201.708 448.031 210.685L404.983 244.028C398.086 249.37 388.129 249.37 381.233 244.028L335.807 208.845C324.854 200.361 309.039 200.361 298.086 208.845L252.661 244.028C245.765 249.37 235.807 249.37 228.911 244.028L183.485 208.845C172.533 200.361 156.717 200.361 145.765 208.845L100.339 244.028C94.0259 248.918 85.0591 249.376 78.2192 245.157L8.42548 202.109C-0.193659 196.793 -2.59399 185.918 3.06428 177.82C8.72248 169.722 20.2966 167.467 28.9157 172.783L87.2066 208.736L122.015 181.776C146.76 162.61 182.491 162.61 207.236 181.776L240.786 207.762L274.336 181.776C299.081 162.61 334.812 162.61 359.557 181.776L393.108 207.762L424.281 183.617C450.467 163.335 488.658 164.655 513.186 186.691L545.432 215.66L590.977 174.765C598.431 168.072 610.248 168.324 617.372 175.327C624.495 182.331 624.227 193.434 616.773 200.127L558.327 252.606Z" fill="black"/>
    <path  fill-rule="evenodd" clip-rule="evenodd" d="M558.327 342.33C551.11 348.811 539.743 348.809 532.527 342.327L487.383 301.77C476.526 292.016 459.622 291.432 448.031 300.409L404.983 333.752C398.086 339.093 388.129 339.093 381.233 333.752L335.807 298.568C324.854 290.085 309.039 290.085 298.086 298.568L252.661 333.752C245.765 339.093 235.807 339.093 228.911 333.752L183.485 298.568C172.533 290.085 156.717 290.085 145.765 298.568L100.339 333.752C94.0259 338.642 85.0591 339.1 78.2192 334.881L8.42548 291.833C-0.193659 286.516 -2.59399 275.642 3.06428 267.544C8.72248 259.445 20.2966 257.19 28.9157 262.506L87.2066 298.46L122.015 271.499C146.76 252.334 182.491 252.333 207.236 271.499L240.786 297.486L274.336 271.499C299.081 252.334 334.812 252.334 359.557 271.499L393.108 297.486L424.281 273.34C450.467 253.059 488.658 254.379 513.186 276.414L545.432 305.384L590.977 264.489C598.431 257.796 610.248 258.047 617.372 265.051C624.495 272.054 624.227 283.157 616.773 289.85L558.327 342.33Z" fill="black"/>
    <path  fill-rule="evenodd" clip-rule="evenodd" d="M558.327 432.052C551.11 438.533 539.743 438.532 532.527 432.049L487.383 391.492C476.526 381.739 459.622 381.154 448.031 390.132L404.983 423.475C398.086 428.816 388.129 428.816 381.233 423.475L335.807 388.291C324.854 379.808 309.039 379.808 298.086 388.291L252.661 423.475C245.765 428.816 235.807 428.816 228.911 423.475L183.485 388.291C172.533 379.808 156.717 379.808 145.765 388.291L100.339 423.475C94.0259 428.365 85.0591 428.822 78.2192 424.603L8.42548 381.555C-0.193659 376.239 -2.59399 365.364 3.06428 357.266C8.72248 349.168 20.2966 346.913 28.9157 352.229L87.2066 388.182L122.015 361.222C146.76 342.056 182.491 342.056 207.236 361.222L240.786 387.208L274.336 361.222C299.081 342.056 334.812 342.056 359.557 361.222L393.108 387.208L424.281 363.063C450.467 342.781 488.658 344.102 513.186 366.137L545.432 395.106L590.977 354.211C598.431 347.518 610.248 347.77 617.372 354.773C624.495 361.777 624.227 372.88 616.773 379.573L558.327 432.052Z" fill="black"/>
    <path  fill-rule="evenodd" clip-rule="evenodd" d="M558.327 170.908C551.11 177.389 539.743 177.387 532.527 170.905L487.383 130.348C476.526 120.594 459.622 120.01 448.031 128.987L404.983 162.33C398.086 167.672 388.129 167.672 381.233 162.33L335.807 127.146C324.854 118.663 309.039 118.663 298.086 127.146L252.661 162.33C245.765 167.672 235.807 167.672 228.911 162.33L183.485 127.146C172.533 118.663 156.717 118.663 145.765 127.146L100.339 162.33C94.0259 167.22 85.0591 167.678 78.2192 163.459L8.42548 120.411C-0.193659 115.094 -2.59399 104.22 3.06428 96.1217C8.72248 88.0235 20.2966 85.7683 28.9157 91.0845L87.2066 127.038L122.015 100.078C146.76 80.9116 182.491 80.9116 207.236 100.078L240.786 126.064L274.336 100.078C299.081 80.9117 334.812 80.9116 359.557 100.078L393.108 126.064L424.281 101.918C450.467 81.6366 488.658 82.9572 513.186 104.993L545.432 133.962L590.977 93.0669C598.431 86.3739 610.248 86.6256 617.372 93.6289C624.495 100.632 624.227 111.735 616.773 118.428L558.327 170.908Z" fill="black"/>
    <path  fill-rule="evenodd" clip-rule="evenodd" d="M558.327 85.2048C551.11 91.6855 539.743 91.6842 532.527 85.2017L487.383 44.6447C476.526 34.8914 459.622 34.3068 448.031 43.284L404.983 76.6271C398.086 81.9684 388.129 81.9684 381.233 76.6271L335.807 41.4432C324.854 32.9599 309.039 32.9599 298.086 41.4432L252.661 76.6271C245.765 81.9684 235.807 81.9684 228.911 76.6271L183.485 41.4432C172.533 32.9599 156.717 32.9599 145.765 41.4432L100.339 76.6271C94.0259 81.5171 85.0591 81.9747 78.2192 77.7558L8.42548 34.7076C-0.19372 29.3913 -2.59393 18.5168 3.06428 10.4186C8.72248 2.32038 20.2966 0.0651437 28.9157 5.38138L87.2066 41.3348L122.015 14.3745C146.76 -4.79147 182.491 -4.7915 207.236 14.3745L240.786 40.3607L274.336 14.3745C299.081 -4.79147 334.812 -4.79149 359.557 14.3745L393.108 40.3607L424.281 16.2153C450.467 -4.06647 488.658 -2.74592 513.186 19.2895L545.432 48.2588L590.977 7.36378C598.431 0.670813 610.248 0.922439 617.372 7.92582C624.495 14.9292 624.227 26.0323 616.773 32.7252L558.327 85.2048Z" fill="black"/>
</svg>

    