<svg opacity="0.15" width="788" height="735" viewBox="290 150 708 795" fill="none" xmlns="http://www.w3.org/2000/svg">
<path fill-rule="evenodd" clip-rule="evenodd" d="M-0.000206692 374.896L405.273 0L431.49 24.9646L26.2163 399.86L-0.000206692 374.896Z" fill="white"/>
<path fill-rule="evenodd" clip-rule="evenodd" d="M51.0191 422.82L456.188 47.8115L482.398 72.7835L77.2287 447.792L51.0191 422.82Z" fill="white"/>
<path fill-rule="evenodd" clip-rule="evenodd" d="M101.933 470.633L507.103 95.625L533.312 120.597L128.143 495.605L101.933 470.633Z" fill="white"/>
<path fill-rule="evenodd" clip-rule="evenodd" d="M152.847 518.445L558.017 143.437L584.226 168.408L179.057 543.417L152.847 518.445Z" fill="white"/>
<path fill-rule="evenodd" clip-rule="evenodd" d="M203.761 566.256L608.931 191.248L635.14 216.22L229.971 591.228L203.761 566.256Z" fill="white"/>
<path fill-rule="evenodd" clip-rule="evenodd" d="M254.675 614.07L659.845 239.062L686.054 264.033L280.885 639.042L254.675 614.07Z" fill="white"/>
<path fill-rule="evenodd" clip-rule="evenodd" d="M305.59 661.881L710.76 286.873L736.969 311.845L331.8 686.853L305.59 661.881Z" fill="white"/>
<path fill-rule="evenodd" clip-rule="evenodd" d="M356.504 709.693L761.674 334.685L787.883 359.657L382.714 734.665L356.504 709.693Z" fill="white"/>
</svg>
