<svg opacity="0.3" width="900" height="846" viewBox="155 40 900 846" fill="none" xmlns="http://www.w3.org/2000/svg">
<path fill-rule="evenodd" clip-rule="evenodd" d="M449.99 508.966C500.799 508.966 541.987 470.288 541.987 422.575C541.987 374.862 500.799 336.184 449.99 336.184C399.182 336.184 357.994 374.862 357.994 422.575C357.994 470.288 399.182 508.966 449.99 508.966ZM449.99 544.029C521.419 544.029 579.324 489.652 579.324 422.575C579.324 355.498 521.419 301.121 449.99 301.121C378.561 301.121 320.656 355.498 320.656 422.575C320.656 489.652 378.561 544.029 449.99 544.029Z" fill="white"/>
<path fill-rule="evenodd" clip-rule="evenodd" d="M449.989 571.784C537.742 571.784 608.879 504.981 608.879 422.575C608.879 340.169 537.742 273.366 449.989 273.366C362.237 273.366 291.099 340.169 291.099 422.575C291.099 504.981 362.237 571.784 449.989 571.784ZM449.989 606.847C558.362 606.847 646.216 524.346 646.216 422.575C646.216 320.805 558.362 238.304 449.989 238.304C341.616 238.304 253.762 320.805 253.762 422.575C253.762 524.346 341.616 606.847 449.989 606.847Z" fill="white"/>
<path fill-rule="evenodd" clip-rule="evenodd" d="M449.99 448.476C465.224 448.476 477.573 436.879 477.573 422.574C477.573 408.269 465.224 396.672 449.99 396.672C434.757 396.672 422.408 408.269 422.408 422.574C422.408 436.879 434.757 448.476 449.99 448.476ZM449.99 483.539C485.845 483.539 514.911 456.244 514.911 422.574C514.911 388.904 485.845 361.609 449.99 361.609C414.136 361.609 385.07 388.904 385.07 422.574C385.07 456.244 414.136 483.539 449.99 483.539Z" fill="white"/>
<path fill-rule="evenodd" clip-rule="evenodd" d="M449.989 571.784C537.742 571.784 608.879 504.981 608.879 422.575C608.879 340.169 537.742 273.366 449.989 273.366C362.237 273.366 291.099 340.169 291.099 422.575C291.099 504.981 362.237 571.784 449.989 571.784ZM449.989 606.847C558.362 606.847 646.216 524.346 646.216 422.575C646.216 320.805 558.362 238.304 449.989 238.304C341.616 238.304 253.762 320.805 253.762 422.575C253.762 524.346 341.616 606.847 449.989 606.847Z" fill="white"/>
<path fill-rule="evenodd" clip-rule="evenodd" d="M449.991 631.562C572.901 631.562 672.539 537.995 672.539 422.574C672.539 307.153 572.901 213.586 449.991 213.586C327.081 213.586 227.443 307.153 227.443 422.574C227.443 537.995 327.081 631.562 449.991 631.562ZM449.991 666.625C593.521 666.625 709.876 557.36 709.876 422.574C709.876 287.789 593.521 178.523 449.991 178.523C306.46 178.523 190.105 287.789 190.105 422.574C190.105 557.36 306.46 666.625 449.991 666.625Z" fill="white"/>
<path fill-rule="evenodd" clip-rule="evenodd" d="M449.99 692.297C608.62 692.297 737.214 571.538 737.214 422.574C737.214 273.61 608.62 152.851 449.99 152.851C291.361 152.851 162.767 273.61 162.767 422.574C162.767 571.538 291.361 692.297 449.99 692.297ZM449.99 727.36C629.24 727.36 774.551 590.902 774.551 422.574C774.551 254.245 629.24 117.788 449.99 117.788C270.741 117.788 125.43 254.245 125.43 422.574C125.43 590.902 270.741 727.36 449.99 727.36Z" fill="white"/>
<path fill-rule="evenodd" clip-rule="evenodd" d="M449.99 751.189C643.255 751.189 799.927 604.062 799.927 422.572C799.927 241.083 643.255 93.9561 449.99 93.9561C256.725 93.9561 100.052 241.083 100.052 422.572C100.052 604.062 256.725 751.189 449.99 751.189ZM449.99 786.251C663.876 786.251 837.265 623.427 837.265 422.572C837.265 221.718 663.876 58.8936 449.99 58.8936C236.104 58.8936 62.7148 221.718 62.7148 422.572C62.7148 623.427 236.104 786.251 449.99 786.251Z" fill="white"/>
<path fill-rule="evenodd" clip-rule="evenodd" d="M449.99 810.083C677.892 810.083 862.643 636.589 862.643 422.573C862.643 208.557 677.892 35.0625 449.99 35.0625C222.088 35.0625 37.3374 208.557 37.3374 422.573C37.3374 636.589 222.088 810.083 449.99 810.083ZM449.99 845.146C698.513 845.146 899.98 655.953 899.98 422.573C899.98 189.192 698.513 0 449.99 0C201.467 0 0 189.192 0 422.573C0 655.953 201.467 845.146 449.99 845.146Z" fill="white"/>
<path fill-rule="evenodd" clip-rule="evenodd" d="M449.99 448.476C465.224 448.476 477.573 436.879 477.573 422.574C477.573 408.269 465.224 396.672 449.99 396.672C434.757 396.672 422.408 408.269 422.408 422.574C422.408 436.879 434.757 448.476 449.99 448.476ZM449.99 483.539C485.845 483.539 514.911 456.244 514.911 422.574C514.911 388.904 485.845 361.609 449.99 361.609C414.136 361.609 385.07 388.904 385.07 422.574C385.07 456.244 414.136 483.539 449.99 483.539Z" fill="white"/>
</svg>
